<svg xmlns="http://www.w3.org/2000/svg" viewBox="0 0 720 920"><defs><style>.cls-1,.cls-2{fill:#fff;}.cls-2{stroke:#fff;}.cls-2,.cls-3{stroke-miterlimit:10;}.cls-3{fill:#17406d;stroke:#17406d;stroke-width:10px;}</style></defs><g id="Layer_2" data-name="Layer 2"><g id="Layer_1-2" data-name="Layer 1"><path class="cls-1" d="M0,0V920H720V0ZM20,600V20H700V600Z"/><polygon class="cls-2" points="241.96 514.47 241.96 423.61 163.26 469.04 241.96 514.47"/><polygon class="cls-2" points="163.26 469.04 163.26 378.17 241.96 423.61 163.26 469.04"/><polygon class="cls-2" points="241.96 423.61 241.96 332.74 163.26 378.17 241.96 423.61"/><polygon class="cls-2" points="163.26 378.17 163.26 287.31 241.96 332.74 163.26 378.17"/><polygon class="cls-2" points="241.96 332.74 241.96 241.88 163.26 287.31 241.96 332.74"/><polygon class="cls-2" points="163.26 287.31 163.26 196.44 241.96 241.88 163.26 287.31"/><polygon class="cls-2" points="399.34 514.47 399.34 423.61 320.65 469.04 399.34 514.47"/><polygon class="cls-2" points="320.65 469.04 320.65 378.17 399.34 423.61 320.65 469.04"/><polygon class="cls-2" points="399.34 423.61 399.34 332.74 320.65 378.17 399.34 423.61"/><polygon class="cls-2" points="320.65 378.17 320.65 287.31 399.34 332.74 320.65 378.17"/><polygon class="cls-2" points="399.34 332.74 399.34 241.88 320.65 287.31 399.34 332.74"/><polygon class="cls-2" points="320.65 287.31 320.65 196.44 399.34 241.88 320.65 287.31"/><polygon class="cls-2" points="556.74 514.42 556.74 423.56 478.04 468.99 556.74 514.42"/><polygon class="cls-2" points="556.74 241.83 556.74 150.96 478.04 196.39 556.74 241.83"/><polygon class="cls-2" points="399.34 241.83 399.34 150.96 320.65 196.39 399.34 241.83"/><polygon class="cls-2" points="478.04 468.99 478.04 378.12 556.74 423.56 478.04 468.99"/><polygon class="cls-2" points="556.74 423.56 556.74 332.69 478.04 378.12 556.74 423.56"/><polygon class="cls-2" points="478.04 378.12 478.04 287.26 556.74 332.69 478.04 378.12"/><polygon class="cls-2" points="556.74 332.69 556.74 241.83 478.04 287.26 556.74 332.69"/><polygon class="cls-2" points="478.04 287.26 478.04 196.4 556.74 241.83 478.04 287.26"/><polygon class="cls-2" points="320.59 105.53 241.93 151.01 320.65 196.4 320.59 105.53"/><polygon class="cls-2" points="320.65 196.4 241.98 241.88 241.93 151.01 320.65 196.4"/><polygon class="cls-2" points="399.31 150.91 320.65 196.4 320.59 105.53 399.31 150.91"/><polygon class="cls-2" points="477.99 105.53 399.32 151.01 478.04 196.4 477.99 105.53"/><polygon class="cls-2" points="478.04 196.4 399.38 241.88 399.32 151.01 478.04 196.4"/><polygon class="cls-2" points="556.71 150.91 478.04 196.4 477.99 105.53 556.71 150.91"/><path class="cls-3" d="M172.56,839.07h.86l77.91-184.28h21V864.08H255.07V688.29l-.86-.15-75,175.94H166.81L90.05,683.83l-.86.14V864.08H71.94V654.79h23Z"/><path class="cls-3" d="M354.83,749.81q-11.65-14.37-17.25-26.23A56.41,56.41,0,0,1,332,699.21q0-22.71,12.79-35.07t35.08-12.36q20.7,0,32.84,11.64t12.15,29.32q0,12.94-6.47,22.28t-18.69,18.69l-22.85,17.54L436,820.39A82.68,82.68,0,0,0,447,797.53a91.55,91.55,0,0,0,3.89-27h15.81a104.66,104.66,0,0,1-5.25,33.85,92.61,92.61,0,0,1-15.16,28l26.59,31-.29.71H452.86l-17.54-20.26a91.37,91.37,0,0,1-26.73,17.25,80.94,80.94,0,0,1-31.34,6q-30,0-47.58-15.38t-17.54-41a50.54,50.54,0,0,1,10.42-31.12q10.43-13.86,30.12-28.24Zm22.42,102.77a67.25,67.25,0,0,0,25.8-5.17,72.11,72.11,0,0,0,22.64-14.81l-59.51-69.28L365,762.1a4.15,4.15,0,0,1-.79-1.08l-6.76,5.18q-16.68,13.5-22.35,24.43t-5.68,20.12q0,17.84,12.29,29.83T377.25,852.58Zm-28-153.66a48.48,48.48,0,0,0,4.53,19.7,98.55,98.55,0,0,0,13.87,21.7l25.44-19q8.34-6.47,11.86-13.52a33.22,33.22,0,0,0,3.52-15.09q0-11.36-7.55-18.83t-21.05-7.47q-14.67,0-22.64,9.34T349.22,698.92Z"/><path class="cls-3" d="M524.15,777.12v87H506.91V654.79h72.15q32.93,0,51,16.82t18,44.27q0,27.9-18,44.57t-51,16.67Zm0-14.66h54.91q25.88,0,38.82-13.16t12.93-33.13q0-20.11-12.93-33.42t-38.82-13.29H524.15Z"/></g></g></svg>